<svg xmlns="http://www.w3.org/2000/svg" width="8" height="14" viewBox="0 0 8 14"><g fill="none" fill-rule="evenodd"><path d="M-4-1h16v16H-4z"/><path fill="#000" fill-opacity=".54" d="M6.592 10.14a3.242 3.242 0 0 1-2.652 1.363A3.274 3.274 0 0 1 .874 9.34c0-.014-.015-.03-.015-.06-.014-.028-.014-.059-.03-.088-.488-1.57.178-3.17 1.26-4.459 1.437-1.689 1.126-4.4 1.126-4.4 6.667 5.97 3.377 9.808 3.377 9.808zm-1.6-3.022c-.695-.83-.547-2.148-.547-2.148C1.185 7.888 2.8 9.77 2.8 9.77c.281.4.755.667 1.288.667.696 0 1.274-.445 1.496-1.067 0-.014 0-.014.015-.029 0-.015.015-.03.015-.045.236-.77-.09-1.556-.622-2.178zM.682 12.66c1.126-.637 2.237-.326 3.363 0 1.125.326 2.236.637 3.362 0v.637a2.83 2.83 0 0 1-1.422.37c-.652 0-1.288-.192-1.94-.37-1.126-.325-2.237-.637-3.363 0v-.637z"/></g></svg>