<svg xmlns="http://www.w3.org/2000/svg" width="14" height="14" viewBox="0 0 14 14"><g fill="none" fill-rule="evenodd"><path d="M-1-1h16v16H-1z"/><path fill="#000" fill-opacity=".54" fill-rule="nonzero" d="M10.889 7A3.889 3.889 0 1 0 3.11 7a3.889 3.889 0 0 0 7.778 0zM5 7a2 2 0 1 1 4 0 2 2 0 0 1-4 0zm1.444 2.5h1.112v.833H6.444V9.5zM5.334 12h3.333v1.111H5.333V12zm6.11-5.556h2.223v1.112h-2.223V6.444zm-11.11 0h2.222v1.112H.333V6.444zM7.555.334v2.222H6.444V.333h1.112zm4.857 2.174L10.84 4.079l-.785-.785 1.57-1.572.787.786zm-9.905-.786l1.571 1.572-.785.785-1.572-1.571.786-.786zm3.936 11.39h1.112v.555H6.444v-.556zm-1.11-2.779h3.333v.556c0 .307-.24.555-.55.555H5.883a.559.559 0 0 1-.55-.555v-.556z"/></g></svg>