<svg xmlns="http://www.w3.org/2000/svg" width="16" height="10" viewBox="0 0 16 10"><g fill="none" fill-rule="evenodd"><path d="M0-3h16v16H0z"/><path fill="#000" fill-opacity=".54" d="M6.492 3.288c0-.083.062-.145.145-.145h.496c.083 0 .145.062.145.145v3.389a.141.141 0 0 1-.145.144h-.496a.141.141 0 0 1-.145-.144v-.331a.141.141 0 0 0-.144-.145H1.432a.141.141 0 0 1-.145-.145V1.264a.141.141 0 0 0-.145-.145h-.33A.141.141 0 0 1 .666.974V.478A.142.142 0 0 1 .81.333H4.2a.14.14 0 0 1 .144.145v.495a.141.141 0 0 1-.144.145h-.331a.141.141 0 0 0-.145.145v2.355c0 .083.062.145.145.145h2.478a.141.141 0 0 0 .145-.145v-.33zm3.016 3.408a.14.14 0 0 1-.145.143h-.496a.141.141 0 0 1-.145-.144V3.307c0-.083.062-.145.145-.145h.496c.082 0 .145.062.145.145v.33a.14.14 0 0 0 .144.146h4.916c.083 0 .145.062.145.145V8.72c0 .083.062.145.145.145h.33c.083 0 .145.062.145.145v.496a.141.141 0 0 1-.144.145H11.8a.141.141 0 0 1-.145-.145V9.01c0-.083.062-.145.145-.145h.33a.141.141 0 0 0 .146-.145V6.365a.141.141 0 0 0-.145-.145H9.653a.141.141 0 0 0-.145.145v.331z"/></g></svg>